<svg xmlns="http://www.w3.org/2000/svg" xmlns:xlink="http://www.w3.org/1999/xlink" width="139.8" height="47.19" viewBox="0 0 139.8 47.19">
  <defs>
    <linearGradient id="New_Gradient_Swatch_1" data-name="New Gradient Swatch 1" x1="85.69" y1="33.79" x2="106.1" y2="33.79" gradientUnits="userSpaceOnUse">
      <stop offset="0" stop-color="#e6230b"/>
      <stop offset="0.35" stop-color="#2b3990"/>
      <stop offset="0.69" stop-color="#de048a"/>
      <stop offset="1" stop-color="#313f74"/>
    </linearGradient>
  </defs>
  <g id="Layer_1" data-name="Layer 1">
    <g>
      <path d="M1.56,29.3a7.69,7.69,0,0,1,3.05-3.19A9.13,9.13,0,0,1,9.26,25a9.55,9.55,0,0,1,4.12.86,7.59,7.59,0,0,1,2.95,2.45A8.8,8.8,0,0,1,17.85,32H12a3.25,3.25,0,0,0-1.14-1.36,3,3,0,0,0-1.69-.49,2.64,2.64,0,0,0-2.21,1A4.47,4.47,0,0,0,6.13,34,4.45,4.45,0,0,0,7,36.81a2.64,2.64,0,0,0,2.21,1,2.94,2.94,0,0,0,1.69-.49A3.19,3.19,0,0,0,12,36h5.86a8.84,8.84,0,0,1-1.52,3.68,7.65,7.65,0,0,1-2.95,2.44A9.4,9.4,0,0,1,9.26,43a9.23,9.23,0,0,1-4.65-1.13,7.71,7.71,0,0,1-3.05-3.2A10,10,0,0,1,.5,34,10,10,0,0,1,1.56,29.3Z" fill="#313f74" stroke="#fff" stroke-miterlimit="10"/>
      <path d="M31.21,40.19h-5.9l-.88,2.68H18.6l6.48-17.72h6.41L38,42.87H32.09ZM29.86,36l-1.6-4.93L26.66,36Z" fill="#313f74" stroke="#fff" stroke-miterlimit="10"/>
      <path d="M53.55,35.32A4.27,4.27,0,0,1,54.44,38,4.37,4.37,0,0,1,52.9,41.6a6.74,6.74,0,0,1-4.41,1.27H39.2V25.15h9a6.9,6.9,0,0,1,4.25,1.17A4,4,0,0,1,54,29.75a4.19,4.19,0,0,1-.81,2.62,3.81,3.81,0,0,1-2.17,1.41A4.24,4.24,0,0,1,53.55,35.32Zm-8.79-3.27h2.15a1.71,1.71,0,0,0,1.11-.3,1.13,1.13,0,0,0,.37-.92,1.22,1.22,0,0,0-.37-1,1.71,1.71,0,0,0-1.11-.31H44.76Zm3.64,6.08a1.15,1.15,0,0,0,.36-.94c0-.85-.49-1.28-1.48-1.28H44.76v2.5h2.52A1.81,1.81,0,0,0,48.4,38.13Z" fill="#313f74" stroke="#fff" stroke-miterlimit="10"/>
      <path d="M61.88,25.15V42.87H56.32V25.15Z" fill="#313f74" stroke="#fff" stroke-miterlimit="10"/>
      <path d="M81.38,42.87H75.82L69.94,34v8.91H64.38V25.15h5.56l5.88,9.06V25.15h5.56Z" fill="#313f74" stroke="#fff" stroke-miterlimit="10"/>
      <path d="M124.1,25.15v4.4h-4.7V42.87h-5.56V29.55h-4.66v-4.4Z" fill="#313f74" stroke="#fff" stroke-miterlimit="10"/>
      <path d="M127.29,41.55a5.49,5.49,0,0,1-2.24-4.36H131c.08,1,.53,1.52,1.35,1.52a1.36,1.36,0,0,0,.77-.21.76.76,0,0,0,.31-.66,1.16,1.16,0,0,0-.68-1,15.06,15.06,0,0,0-2.1-.89,24.27,24.27,0,0,1-2.82-1.17,5.44,5.44,0,0,1-1.91-1.68,4.58,4.58,0,0,1-.78-2.83,4.86,4.86,0,0,1,.89-2.94,5.48,5.48,0,0,1,2.43-1.84,9.09,9.09,0,0,1,3.47-.62,8.17,8.17,0,0,1,5.17,1.5,5.36,5.36,0,0,1,2,4.23h-6a1.49,1.49,0,0,0-.38-1.08,1.21,1.21,0,0,0-.85-.32.78.78,0,0,0-.57.23.94.94,0,0,0-.23.67,1.14,1.14,0,0,0,.66,1,14.82,14.82,0,0,0,2.12.93,23.5,23.5,0,0,1,2.77,1.21,5.86,5.86,0,0,1,1.89,1.6,4.07,4.07,0,0,1,.8,2.58,5.26,5.26,0,0,1-3.13,4.93,8.46,8.46,0,0,1-3.63.72A8.72,8.72,0,0,1,127.29,41.55Z" fill="#313f74" stroke="#fff" stroke-miterlimit="10"/>
    </g>
    <g>
      <path d="M24.31.77,20.64,16.85H14.37L12.51,7.72l-1.86,9.13H4.38L.7.77H6.13L7.58,10.9,9.76.77h5.5L17.44,10.9,18.89.77Z" fill="#e6230b" stroke="#fff" stroke-miterlimit="10"/>
      <path d="M41,.77V16.85H36V10.58H31.17v6.27h-5V.77h5V6.56H36V.77Z" fill="#e6230b" stroke="#fff" stroke-miterlimit="10"/>
      <path d="M46.94,15.94a8,8,0,0,1-3-2.95,8.24,8.24,0,0,1-1.11-4.25A8.18,8.18,0,0,1,43.93,4.5a7.8,7.8,0,0,1,3-2.94,8.69,8.69,0,0,1,8.32,0,7.79,7.79,0,0,1,3,2.94,8.27,8.27,0,0,1,1.1,4.24A8.33,8.33,0,0,1,58.24,13a7.87,7.87,0,0,1-3,2.95,8.65,8.65,0,0,1-8.3,0Zm6.48-4.6a3.91,3.91,0,0,0,.81-2.6,4,4,0,0,0-.81-2.62,3.28,3.28,0,0,0-4.66,0A4,4,0,0,0,48,8.74a3.91,3.91,0,0,0,.81,2.6,3.28,3.28,0,0,0,4.66,0Z" fill="#e6230b" stroke="#fff" stroke-miterlimit="10"/>
      <path d="M66.2,13h4.86v3.82h-9.9V.77h5Z" fill="#e6230b" stroke="#fff" stroke-miterlimit="10"/>
      <path d="M77.68,4.77v2h5v3.79h-5v2.27h5.68v4H72.64V.77H83.36v4Z" fill="#e6230b" stroke="#fff" stroke-miterlimit="10"/>
      <path d="M86.8,15.65a5,5,0,0,1-2-4h5.35c.08.93.49,1.39,1.23,1.39a1.19,1.19,0,0,0,.69-.2.67.67,0,0,0,.29-.6,1.05,1.05,0,0,0-.62-.92,12.12,12.12,0,0,0-1.9-.8,21.87,21.87,0,0,1-2.56-1.07A4.9,4.9,0,0,1,85.52,8a4.16,4.16,0,0,1-.71-2.57,4.35,4.35,0,0,1,.81-2.66,5,5,0,0,1,2.2-1.67A8.25,8.25,0,0,1,91,.5a7.37,7.37,0,0,1,4.69,1.36A4.84,4.84,0,0,1,97.48,5.7H92.05a1.3,1.3,0,0,0-.34-1,1.1,1.1,0,0,0-.77-.29.7.7,0,0,0-.52.21.84.84,0,0,0-.2.6,1,1,0,0,0,.6.9A12.76,12.76,0,0,0,92.74,7a21.14,21.14,0,0,1,2.5,1.09A5.43,5.43,0,0,1,97,9.54a3.7,3.7,0,0,1,.72,2.33,4.75,4.75,0,0,1-2.83,4.48,7.61,7.61,0,0,1-3.29.65A7.93,7.93,0,0,1,86.8,15.65Z" fill="#e6230b" stroke="#fff" stroke-miterlimit="10"/>
      <path d="M109.76,14.42H104.4l-.79,2.43H98.32L104.2.77H110l5.86,16.08h-5.31Zm-1.22-3.8-1.46-4.47-1.45,4.47Z" fill="#e6230b" stroke="#fff" stroke-miterlimit="10"/>
      <path d="M122,13h4.86v3.82H117V.77h5Z" fill="#e6230b" stroke="#fff" stroke-miterlimit="10"/>
      <path d="M133.53,4.77v2h5v3.79h-5v2.27h5.68v4H128.49V.77h10.72v4Z" fill="#e6230b" stroke="#fff" stroke-miterlimit="10"/>
    </g>
  </g>
  <g id="Layer_5" data-name="Layer 5">
    <path d="M98.36,46.36V21.22l7.74,4.44V42.28Zm.45-24.42V45.62L105.65,42V25.92ZM97.53,46.36,85.69,42.3V25.64l11.84-4.42v6.4l-8.38,1.8v2l5.29-.38v5l-5.36,0,.07,1.84,8.38,1.49ZM86.15,42l10.93,3.7v-6l-8.37-1.48-.1-2.69,5.38,0v-4L88.7,32V29.06l8.38-1.81V21.87L86.15,26Z" fill="none" stroke="#fff" stroke-miterlimit="10"/>
  </g>
  <g id="Layer_6" data-name="Layer 6">
    <path d="M98.36,46.4V21.19l7.74,4.51V42.31ZM98.81,22V45.65L105.65,42V26ZM97.53,46.34l-11.84-4V25.67l11.84-4.42v6.4l-8.38,1.81v2l5.29-.38v5l-5.36,0,.07,1.85,8.38,1.48ZM86.15,42l10.93,3.7v-6l-8.37-1.48-.1-2.68,5.38,0v-4L88.7,32V29.09l8.38-1.8V21.91L86.15,26Z" fill="url(#New_Gradient_Swatch_1)"/>
  </g>
</svg>
